<svg width="228" height="32" viewBox="0 0 228 32" fill="none" xmlns="http://www.w3.org/2000/svg">
<path d="M2.16 28V4.864C2.832 4.864 8.464 4.832 10.48 4.896C18.832 5.184 22.448 9.792 22.448 16.352C22.448 23.104 18.64 28 10.448 28H2.16ZM8.384 23.104H10.64C12.992 23.104 15.952 21.28 15.952 16.256C15.952 12 13.808 9.76 10.64 9.76H8.384V23.104Z" fill="white"/>
<path d="M61.04 28V10.336H54.48V4.864H73.904V10.336H67.28V28H61.04Z" fill="white"/>
<path d="M96.616 28.32C91.848 28.32 86.76 25.952 86.36 20.96H92.696C93.048 22.592 94.456 23.552 97 23.552C98.488 23.552 100.328 23.072 100.328 21.536C100.328 20.192 99.048 19.84 97.528 19.568L93.576 18.864C89.432 18.128 87.016 15.904 87.016 11.968C87.016 7.296 91.272 4.576 96.824 4.576C102.856 4.576 106.312 7.584 106.408 11.872H100.232C100.04 10.128 98.776 9.376 96.648 9.376C94.344 9.376 93.544 10.368 93.544 11.296C93.544 12.256 94.184 12.944 96.136 13.264L99.576 13.824C104.408 14.608 106.552 17.152 106.552 20.864C106.552 25.376 102.296 28.32 96.616 28.32ZM118.334 28V10.336H111.774V4.864H131.198V10.336H124.574V28H118.334ZM147.013 28.32C139.557 28.32 137.029 24.32 137.029 18.432V4.864H143.333V18.688C143.333 21.888 145.061 23.104 147.013 23.104C148.933 23.104 150.693 21.888 150.693 18.688V4.864H156.997V18.432C156.997 24.32 154.469 28.32 147.013 28.32ZM164.072 28V4.864C164.744 4.864 170.376 4.832 172.392 4.896C180.744 5.184 184.361 9.792 184.361 16.352C184.361 23.104 180.552 28 172.36 28H164.072ZM170.296 23.104H172.552C174.904 23.104 177.864 21.28 177.864 16.256C177.864 12 175.72 9.76 172.552 9.76H170.296V23.104ZM191.085 28V4.864H197.309V28H191.085ZM215.248 28.32C208.368 28.32 204.016 23.68 204.016 16.48C204.016 9.248 208.496 4.544 215.248 4.544C221.968 4.544 226.416 9.248 226.416 16.48C226.416 23.648 222.064 28.32 215.248 28.32ZM215.248 23.328C217.808 23.328 219.664 21.568 219.664 16.576C219.664 11.424 217.808 9.536 215.248 9.536C212.688 9.536 210.816 11.424 210.816 16.576C210.816 21.568 212.688 23.328 215.248 23.328Z" fill="white"/>
<circle cx="39" cy="17" r="12" fill="url(#paint0_radial_88_54)"/>
<defs>
<radialGradient id="paint0_radial_88_54" cx="0" cy="0" r="1" gradientUnits="userSpaceOnUse" gradientTransform="translate(39 17) rotate(90) scale(12)">
<stop stop-color="#C5B9FF"/>
<stop offset="1" stop-color="#9A85FF"/>
</radialGradient>
</defs>
</svg>
